<svg id="Layer_1" data-name="Layer 1" xmlns="http://www.w3.org/2000/svg" xmlns:xlink="http://www.w3.org/1999/xlink" viewBox="0 0 293.7 193"><defs><linearGradient id="New_Gradient_Swatch_1" x1="147.13" y1="2.7" x2="147.13" y2="144.12" gradientUnits="userSpaceOnUse"><stop offset="0" stop-color="#02080e"/><stop offset="0.16" stop-color="#14070c"/><stop offset="0.5" stop-color="#440408"/><stop offset="0.96" stop-color="#900002"/><stop offset="1" stop-color="#970001"/></linearGradient></defs><title>Artboard 1 copy 4</title><circle cx="147.13" cy="73.41" r="70.71" style="fill:url(#New_Gradient_Swatch_1)"/><path d="M189.64,46.07c-.08-1.33-.2-3.37-1.66-4.77-2-1.94-5.24-1.37-8.76-.75s-7.15,1.27-10,4.54a12.45,12.45,0,0,0-2.74,5.76,9.22,9.22,0,0,1,.83-5c1-2.07,2.51-2.8,2.27-4.1-.2-1.11-1.39-1.19-2.5-2.58-1.33-1.67-1.21-3.53-1.36-4.85-.59-5-5.93-9.08-9.24-10.78A18.67,18.67,0,0,0,146,21.63a20.48,20.48,0,0,0-15.18,10.1c-1,1.93-1.18,3.48-3.07,6.08-1.37,1.9-2.56,2.84-2.49,4.43.06,1.33,1,2,1.89,3.3a13.51,13.51,0,0,1,2.27,7.28,53.61,53.61,0,0,0-3.94-5.15c-2.74-3.17-4.25-4.93-6.52-6.22-3.77-2.14-10.23-3.33-13-.2-2.28,2.59-1,7-.8,7.88.91,3.27,2.52,3.88,10.11,12.34,2.56,2.85,4.24,4.87,5.2,8a16.57,16.57,0,0,1,.7,5.11,20.69,20.69,0,0,0-3.41-7.15c-1.3-1.75-3-4-4.57-3.72-1.83.39-2.42,4.2-2.73,6.22s-.66,4.37.36,6.67c1.24,2.81,3,2.38,5,5.31,2.27,3.4.7,5.07,2.78,8.16,2.42,3.58,7.33,5.43,8.76,4.2.8-.69.18-2,0-5.31a30,30,0,0,1,.56-7.67,24.5,24.5,0,0,0,0,7.14,20.4,20.4,0,0,0,4.55,10.77c2.3,2.6,4.78,3.71,8.65,5.46,6.48,2.92,10.78,3.12,10.77,4.09,0,1.85-15.43,1.19-16.47,5.61-.57,2.38,3.28,5.33,5.95,7.39s5.13,3,10.21,5c4.73,1.9,6.9,2.3,8.8,2.43a21.77,21.77,0,0,0,4.87-.23c1-.56,2-1.33,1.89-2-.15-.93-2.18-1.16-5.15-1.89A43.92,43.92,0,0,1,153,121.9c-.93-.48-6.45-3.34-6-5.31.39-1.72,5.26-2.33,9.44-2.87,3.59-.45,5.61-.31,7.07-1.93.11-.12,1.67-1.9,1.23-3.76-.79-3.35-7-2.59-10.61-6.3-1.75-1.78-3.52-5.26-2.43-12.74a15.29,15.29,0,0,0,.61,6.52c.29.91,1.56,4.83,3.33,4.86,1.08,0,1.25-1.42,3.48-3.11a10.52,10.52,0,0,1,4.24-2c3.13-.61,4,1.27,6.47.8,3.76-.69,5.76-5.65,6-6.21,1.26-3.22-.08-4.17,1.37-6.9s3-2.32,4.24-5c.9-1.91.82-3.61.69-6.44-.14-3-.32-6.82-1.75-7.28-2-.66-5.74,5.57-7.5,8.72a23.14,23.14,0,0,1,2.5-7.13,25.47,25.47,0,0,1,6.29-7.43c2.48-2.07,2.67-1.54,4.17-3.11C186.56,54.51,189.93,51,189.64,46.07Zm-56.77-8.45a8.3,8.3,0,0,1,2.4-5,5.94,5.94,0,0,1,3.72-1.9,5.57,5.57,0,0,1,3.74,1.18,9.33,9.33,0,0,0-4.42.49A10,10,0,0,0,132.87,37.62Zm4.68,8.53c-1.83-1.09-1.55-4.14-1.44-5.31a8.54,8.54,0,0,1,1.14-3.54,8.45,8.45,0,0,1,1.89-2.22,14.91,14.91,0,0,0,.11,2.35,4.16,4.16,0,0,0,.73,2.4,2.86,2.86,0,0,0,2,.78c.84,2.4,0,4.72-1.59,5.54A3.09,3.09,0,0,1,137.55,46.15ZM147.78,69A7,7,0,0,1,141.2,65a9.36,9.36,0,0,0,12.42.15A7.42,7.42,0,0,1,147.78,69Zm-.3-3.94c-2.2,0-3.89-3.1-5.2-5.47-2-3.65-3.26-8.68-1.85-9.54,1.24-.76,3.06,2.63,6.85,2.77,4.14.14,6.31-3.77,7.41-3.08C156.65,51,152.25,65.11,147.48,65Zm9.67-18.88a3.09,3.09,0,0,1-2.88,0c-1.82-1.09-1.55-4.14-1.44-5.31A8.69,8.69,0,0,1,154,37.3a8.45,8.45,0,0,1,1.89-2.22,14,14,0,0,0,.12,2.35,4.09,4.09,0,0,0,.72,2.4,2.86,2.86,0,0,0,2,.78C159.58,43,158.76,45.33,157.15,46.15Zm-.57-13.8a9.38,9.38,0,0,0-4.43-.49,5.57,5.57,0,0,1,3.74-1.18,5.88,5.88,0,0,1,3.72,1.9,8.3,8.3,0,0,1,2.4,5A10,10,0,0,0,156.58,32.35Z" style="fill:#fff"/><path d="M9.73,192.38A27,27,0,0,1,5.19,192,14.76,14.76,0,0,1,1.56,191v-5.2a20.6,20.6,0,0,0,3.7,1.17,17.33,17.33,0,0,0,3.86.46,10.31,10.31,0,0,0,3.4-.42,1.73,1.73,0,0,0,1.12-1.82,2.09,2.09,0,0,0-.55-1.52,4.61,4.61,0,0,0-1.79-1c-.82-.29-1.94-.64-3.36-1a17,17,0,0,1-4-1.69,5.68,5.68,0,0,1-2.13-2.27,7.4,7.4,0,0,1-.64-3.26A6.25,6.25,0,0,1,3.69,169q2.51-1.86,7.41-1.86a25.7,25.7,0,0,1,4.14.32,20.78,20.78,0,0,1,3.27.74v5.24a18.29,18.29,0,0,0-3.29-.95,17.93,17.93,0,0,0-3.21-.3,12.1,12.1,0,0,0-3.33.38,1.65,1.65,0,0,0-1.27,1.75,1.72,1.72,0,0,0,.46,1.27,4,4,0,0,0,1.57.86c.75.25,1.77.55,3.06.91a14.56,14.56,0,0,1,4.6,1.92,6,6,0,0,1,2.2,2.58,8.42,8.42,0,0,1,.61,3.29,6.33,6.33,0,0,1-2.51,5.22Q14.9,192.38,9.73,192.38Z" style="fill:#fff"/><path d="M23.41,192V167.53h6.12V192Z" style="fill:#fff"/><path d="M32.26,192l8.93-12.31-8.66-12.16h7.29l5.06,7.29L50,167.53h7.3L48.6,179.69,57.53,192H50.16l-5.28-7.41L39.63,192Z" style="fill:#fff"/><path d="M69.58,192V167.53H82.5a7.92,7.92,0,0,1,5.56,1.74,7.46,7.46,0,0,1,1.14,8.19,5.32,5.32,0,0,1-2,2,5.82,5.82,0,0,1,2.62,1.78,5.6,5.6,0,0,1,.95,3.54,6.8,6.8,0,0,1-2,5.34A8.57,8.57,0,0,1,82.88,192Zm6.11-14.52h5a3.18,3.18,0,0,0,2.32-.72,2.72,2.72,0,0,0,.72-2,2.82,2.82,0,0,0-.72-2.11,3.74,3.74,0,0,0-2.62-.71H75.69Zm0,10.15h5.59a3.79,3.79,0,0,0,2.49-.69,3,3,0,0,0,.82-2.43,2.69,2.69,0,0,0-.8-2.11,4.16,4.16,0,0,0-2.74-.7H75.69Z" style="fill:#fff"/><path d="M94.32,192V167.53h6.11V192Z" style="fill:#fff"/><path d="M110.35,192V172.24h-7.18v-4.71h20.48v4.71h-7.18V192Z" style="fill:#fff"/><path d="M135.32,192V167.53h12.92a7.92,7.92,0,0,1,5.56,1.74,7.46,7.46,0,0,1,1.14,8.19,5.32,5.32,0,0,1-1.95,2,5.88,5.88,0,0,1,2.62,1.78,5.6,5.6,0,0,1,.95,3.54,6.84,6.84,0,0,1-2.05,5.34,8.57,8.57,0,0,1-5.89,1.84Zm6.11-14.52h5a3.18,3.18,0,0,0,2.32-.72,2.72,2.72,0,0,0,.72-2,2.82,2.82,0,0,0-.72-2.11,3.75,3.75,0,0,0-2.62-.71h-4.68Zm0,10.15H147a3.79,3.79,0,0,0,2.49-.69,3,3,0,0,0,.82-2.43,2.69,2.69,0,0,0-.8-2.11,4.16,4.16,0,0,0-2.74-.7h-5.36Z" style="fill:#fff"/><path d="M171.11,192.38a14.9,14.9,0,0,1-6-1.1,8.69,8.69,0,0,1-3.91-3.27,9.73,9.73,0,0,1-1.39-5.32V167.53H166v14.59a5,5,0,0,0,1.33,3.8,6.4,6.4,0,0,0,7.6,0,5,5,0,0,0,1.33-3.8V167.53h6.12v15.16A9.64,9.64,0,0,1,181,188a8.64,8.64,0,0,1-3.91,3.27A14.9,14.9,0,0,1,171.11,192.38Z" style="fill:#fff"/><path d="M194.22,192.38a27.08,27.08,0,0,1-4.55-.36,14.8,14.8,0,0,1-3.62-1.05v-5.2a20.34,20.34,0,0,0,3.7,1.17,17.33,17.33,0,0,0,3.86.46A10.31,10.31,0,0,0,197,187a1.73,1.73,0,0,0,1.12-1.82,2.09,2.09,0,0,0-.55-1.52,4.61,4.61,0,0,0-1.79-1c-.82-.29-1.94-.64-3.36-1a17,17,0,0,1-4-1.69,5.61,5.61,0,0,1-2.13-2.27,7.4,7.4,0,0,1-.64-3.26,6.27,6.27,0,0,1,2.5-5.36q2.52-1.86,7.41-1.86a25.74,25.74,0,0,1,4.15.32,20.36,20.36,0,0,1,3.26.74v5.24a17.61,17.61,0,0,0-6.49-1.25,12.1,12.1,0,0,0-3.33.38,1.65,1.65,0,0,0-1.27,1.75,1.76,1.76,0,0,0,.45,1.27,4.06,4.06,0,0,0,1.58.86c.75.25,1.77.55,3.06.91a14.66,14.66,0,0,1,4.6,1.92,6,6,0,0,1,2.2,2.58,8.42,8.42,0,0,1,.61,3.29,6.36,6.36,0,0,1-2.51,5.22Q199.39,192.38,194.22,192.38Z" style="fill:#fff"/><path d="M212.8,192V172.24h-7.18v-4.71H226.1v4.71h-7.18V192Z" style="fill:#fff"/><path d="M229.21,192V167.53h18v4.71H235.33v5.13h10.53v4.79H235.33v5.13h11.93V192Z" style="fill:#fff"/><path d="M250.57,192V167.53H262.8q4.33,0,6.39,2.28a8.79,8.79,0,0,1,2.05,6.11,7.43,7.43,0,0,1-4.67,7.11,3.7,3.7,0,0,1,.85.93,10,10,0,0,1,.71,1.43L271,192h-6.38l-2.74-6.23a2.5,2.5,0,0,0-.87-1.16,2.71,2.71,0,0,0-1.52-.36h-2.81V192Zm6.12-12.47h4.52a4,4,0,0,0,2.79-.89,3.44,3.44,0,0,0,1-2.72q0-3.67-3.54-3.68h-4.78Z" style="fill:#fff"/><path d="M282.53,192.38A27,27,0,0,1,278,192a14.76,14.76,0,0,1-3.63-1.05v-5.2a20.6,20.6,0,0,0,3.7,1.17,17.33,17.33,0,0,0,3.86.46,10.31,10.31,0,0,0,3.4-.42,1.73,1.73,0,0,0,1.12-1.82,2.09,2.09,0,0,0-.55-1.52,4.61,4.61,0,0,0-1.79-1c-.82-.29-1.94-.64-3.36-1a17,17,0,0,1-4-1.69,5.61,5.61,0,0,1-2.13-2.27,7.4,7.4,0,0,1-.64-3.26,6.27,6.27,0,0,1,2.5-5.36q2.52-1.86,7.41-1.86a25.74,25.74,0,0,1,4.15.32,20.36,20.36,0,0,1,3.26.74v5.24a17.61,17.61,0,0,0-6.49-1.25,12.1,12.1,0,0,0-3.33.38,1.65,1.65,0,0,0-1.27,1.75,1.72,1.72,0,0,0,.46,1.27,3.93,3.93,0,0,0,1.57.86c.75.25,1.77.55,3.06.91a14.56,14.56,0,0,1,4.6,1.92,6,6,0,0,1,2.2,2.58,8.42,8.42,0,0,1,.61,3.29,6.33,6.33,0,0,1-2.51,5.22Q287.69,192.38,282.53,192.38Z" style="fill:#fff"/></svg>